HIERARCHY
ROOT hip
{
	OFFSET 0.000000 0.000000 0.000000 
	CHANNELS 6 Xposition Yposition Zposition Xrotation Zrotation Yrotation
	JOINT abdomen
	{
		OFFSET 0.000000 3.402643 0.000000 
		CHANNELS 3 Xrotation Zrotation Yrotation
		JOINT chest
		{
			OFFSET 0.000000 8.438565 -0.680529 
			CHANNELS 3 Xrotation Zrotation Yrotation
			JOINT neck
			{
				OFFSET 0.000000 10.207942 -0.272212 
				CHANNELS 3 Xrotation Zrotation Yrotation
				JOINT head
				{
					OFFSET 0.000000 3.130431 0.000000 
					CHANNELS 3 Xrotation Zrotation Yrotation
					End Site
					{
						OFFSET 0.000000 3.130435 0.000000 
					}
				}
			}
			JOINT lCollar
			{
				OFFSET 3.470700 6.669187 -0.816635 
				CHANNELS 3 Yrotation Zrotation Xrotation
				JOINT lShldr
				{
					OFFSET 3.198488 0.000000 0.000000 
					CHANNELS 3 Zrotation Yrotation Xrotation
					JOINT lForeArm
					{
						OFFSET 10.139888 0.000000 0.000000 
						CHANNELS 3 Yrotation Zrotation Xrotation
						JOINT lHand
						{
							OFFSET 8.370511 0.000000 0.000000 
							CHANNELS 3 Zrotation Yrotation Xrotation
							End Site
							{
								OFFSET 4.083176 0.000000 0.000000 
							}
						}
					}
				}
			}
			JOINT rCollar
			{
				OFFSET -3.470700 6.669187 -0.816635 
				CHANNELS 3 Yrotation Zrotation Xrotation
				JOINT rShldr
				{
					OFFSET -3.198488 0.000000 0.000000 
					CHANNELS 3 Zrotation Yrotation Xrotation
					JOINT rForeArm
					{
						OFFSET -10.139888 0.000000 0.000000 
						CHANNELS 3 Yrotation Zrotation Xrotation
						JOINT rHand
						{
							OFFSET -8.370511 0.000000 0.000000 
							CHANNELS 3 Zrotation Yrotation Xrotation
							End Site
							{
								OFFSET -4.083176 0.000000 0.000000 
							}
						}
					}
				}
			}
		}
	}
	JOINT lThigh
	{
		OFFSET 5.308129 -1.633274 1.361059 
		CHANNELS 3 Xrotation Zrotation Yrotation
		JOINT lShin
		{
			OFFSET -2.041588 -20.007561 0.000000 
			CHANNELS 3 Xrotation Zrotation Yrotation
			JOINT lFoot
			{
				OFFSET 0.000000 -19.190928 -1.224953 
				CHANNELS 3 Xrotation Yrotation Zrotation
				End Site
				{
					OFFSET 0.000000 -2.449906 4.627600 
				}
			}
		}
	}
	JOINT rThigh
	{
		OFFSET -5.308129 -1.633274 1.361059 
		CHANNELS 3 Xrotation Zrotation Yrotation
		JOINT rShin
		{
			OFFSET 2.041588 -20.007561 0.000000 
			CHANNELS 3 Xrotation Zrotation Yrotation
			JOINT rFoot
			{
				OFFSET 0.000000 -19.190928 -1.224953 
				CHANNELS 3 Xrotation Yrotation Zrotation
				End Site
				{
					OFFSET 0.000000 -2.449906 4.627600 
				}
			}
		}
	}
}
MOTION
Frames: 11
Frame Time: 0.016667
0.187611 20.872480 -19.831942 -15.525959 -13.207179 -1.717219 64.557198 15.926046 12.527828 6.682034 -1.112311 4.892885 -8.560290 -2.125712 0.311675 -6.608796 -7.358494 13.599540 -13.663829 5.332128 0.278463 -45.217674 -36.347931 1.271673 -106.942688 -4.667853 -0.852562 -27.552753 2.118819 9.789116 23.039446 2.869800 -0.146432 63.907375 22.849051 14.343865 46.184361 5.000000 9.074537 -2.914957 -15.258545 26.821850 -100.015556 17.646114 -11.182182 132.364349 6.321438 -6.307182 -23.396856 8.026852 5.564449 -26.101032 -3.680478 -22.990362 144.986786 -0.595903 0.338038 -79.818245 -10.637828 -9.405634 
0.187611 20.872480 -19.831942 -15.525959 -13.207179 -1.717219 64.557198 15.926046 12.527828 6.682034 -1.112311 4.892885 -8.560290 -2.125712 0.311675 -6.608796 -7.358494 13.599540 -13.663829 5.332128 0.278463 -45.217674 -36.347931 1.271673 -106.942688 -4.667853 -0.852562 -27.552753 2.118819 9.789116 23.039446 2.869800 -0.146432 63.907375 22.849051 14.343865 46.184361 5.000000 9.074537 -2.914957 -15.258545 26.821850 -100.015556 17.646114 -11.182182 132.364349 6.321438 -6.307182 -23.396856 8.026852 5.564449 -26.101032 -3.680478 -22.990362 144.986786 -0.595903 0.338038 -79.818245 -10.637828 -9.405634 
0.187611 20.872480 -19.831942 -15.525959 -13.207179 -1.717219 64.557198 15.926046 12.527828 6.682034 -1.112311 4.892885 -8.560290 -2.125712 0.311675 -6.608796 -7.358494 13.599540 -13.663829 5.332128 0.278463 -45.217674 -36.347931 1.271673 -106.942688 -4.667853 -0.852562 -27.552753 2.118819 9.789116 23.039446 2.869800 -0.146432 63.907375 22.849051 14.343865 46.184361 5.000000 9.074537 -2.914957 -15.258545 26.821850 -100.015556 17.646114 -11.182182 132.364349 6.321438 -6.307182 -23.396856 8.026852 5.564449 -26.101032 -3.680478 -22.990362 144.986786 -0.595903 0.338038 -79.818245 -10.637828 -9.405634 
0.187611 20.872480 -19.831942 -15.525959 -13.207179 -1.717219 64.557198 15.926046 12.527828 6.682034 -1.112311 4.892885 -8.560290 -2.125712 0.311675 -6.608796 -7.358494 13.599540 -13.663829 5.332128 0.278463 -45.217674 -36.347931 1.271673 -106.942688 -4.667853 -0.852562 -27.552753 2.118819 9.789116 23.039446 2.869800 -0.146432 63.907375 22.849051 14.343865 46.184361 5.000000 9.074537 -2.914957 -15.258545 26.821850 -100.015556 17.646114 -11.182182 132.364349 6.321438 -6.307182 -23.396856 8.026852 5.564449 -26.101032 -3.680478 -22.990362 144.986786 -0.595903 0.338038 -79.818245 -10.637828 -9.405634 
0.187611 20.872480 -19.831942 -15.525959 -13.207179 -1.717219 64.557198 15.926046 12.527828 6.682034 -1.112311 4.892885 -8.560290 -2.125712 0.311675 -6.608796 -7.358494 13.599540 -13.663829 5.332128 0.278463 -45.217674 -36.347931 1.271673 -106.942688 -4.667853 -0.852562 -27.552753 2.118819 9.789116 23.039446 2.869800 -0.146432 63.907375 22.849051 14.343865 46.184361 5.000000 9.074537 -2.914957 -15.258545 26.821850 -100.015556 17.646114 -11.182182 132.364349 6.321438 -6.307182 -23.396856 8.026852 5.564449 -26.101032 -3.680478 -22.990362 144.986786 -0.595903 0.338038 -79.818245 -10.637828 -9.405634 
0.187608 20.872480 -19.831938 -15.525959 -13.207179 -1.717219 64.557198 15.926046 12.527828 6.682034 -1.112311 4.892885 -8.560290 -2.125712 0.311675 -6.608796 -7.358494 13.599540 -13.663829 5.332128 0.278463 -45.217674 -36.347931 1.271673 -106.942688 -4.667853 -0.852562 -27.552753 2.118819 9.789116 23.039446 2.869800 -0.146432 63.907375 22.849051 14.343865 46.184361 5.000000 9.074537 -2.914957 -15.258545 26.821850 -100.015556 17.646114 -11.182182 132.364349 6.321439 -6.307180 -23.396856 8.026852 5.564449 -26.101032 -3.680478 -22.990362 144.986786 -0.595903 0.338037 -79.818245 -10.637828 -9.405634 
0.187606 20.872482 -19.831936 -15.525959 -13.207179 -1.717219 64.557198 15.926046 12.527828 6.682034 -1.112311 4.892885 -8.560290 -2.125712 0.311675 -6.608796 -7.358494 13.599540 -13.663829 5.332128 0.278463 -45.217674 -36.347931 1.271673 -106.942688 -4.667853 -0.852562 -27.552753 2.118819 9.789116 23.039446 2.869800 -0.146432 63.907375 22.849051 14.343865 46.184361 5.000000 9.074537 -2.914957 -15.258545 26.821850 -100.015556 17.646120 -11.182180 132.364349 6.321437 -6.307180 -23.396854 8.026853 5.564450 -26.101030 -3.680476 -22.990360 144.986786 -0.595902 0.338038 -79.818245 -10.637828 -9.405634 
0.186835 20.872927 -19.829884 -15.535424 -13.216939 -1.717220 64.559135 15.932683 12.534749 6.692019 -1.102546 4.902650 -8.579928 -2.145024 0.314595 -6.608588 -7.368592 13.580176 -13.692330 5.353944 0.270023 -45.234528 -36.311127 1.249683 -106.952583 -4.667293 -0.856483 -27.573488 2.113605 9.792908 23.019890 2.860047 -0.145927 63.914143 22.868187 14.345216 46.175865 5.000000 9.069519 -2.918292 -15.226582 26.852299 -100.015213 17.655939 -11.183575 132.344849 6.341025 -6.313647 -23.403923 7.982430 5.537184 -26.091114 -3.680395 -22.990091 144.985825 -0.605786 0.336862 -79.807755 -10.616787 -9.395353 
0.185295 20.873817 -19.825777 -15.546885 -13.236528 -1.705481 64.583893 15.959740 12.543397 6.712186 -1.083024 4.922182 -8.628916 -2.173990 0.318975 -6.601959 -7.397978 13.552389 -13.731485 5.373456 0.271032 -45.262867 -36.250412 1.196646 -106.992027 -4.665448 -0.868777 -27.595379 2.104387 9.809869 22.980776 2.840542 -0.144917 63.951725 22.880058 14.361760 46.149296 5.000000 9.067147 -2.936521 -15.157732 26.927727 -100.015900 17.636297 -11.180786 132.365494 6.348319 -6.286720 -23.400723 8.047183 5.499406 -26.060913 -3.679848 -22.998865 144.985825 -0.605786 0.336869 -79.856659 -10.595267 -9.403436 
0.183753 20.874706 -19.821669 -15.558650 -13.246355 -1.695975 64.588799 15.985609 12.551675 6.731945 -1.073259 4.941713 -8.677907 -2.202957 0.323354 -6.605065 -7.427372 13.523350 -13.780452 5.402721 0.272545 -45.296753 -36.182789 1.160343 -107.021828 -4.673497 -0.880809 -27.626902 2.096847 9.826479 22.951429 2.821037 -0.143907 63.976734 22.903112 14.370796 46.122486 5.000000 9.058701 -2.954572 -15.088858 27.003120 -100.018364 17.636278 -11.208518 132.365906 6.338575 -6.270705 -23.393347 8.078712 5.484500 -26.030481 -3.640297 -22.975109 144.989029 -0.570508 0.347726 -79.896492 -10.625971 -9.438444 
0.180719 20.877350 -19.815931 -15.571841 -13.285532 -1.676968 64.636810 16.029293 12.587282 6.733420 -1.034224 4.951481 -8.707258 -2.212613 0.324814 -6.590608 -7.494142 13.514933 -13.662897 5.324681 0.268511 -45.259583 -36.290623 1.178265 -106.933922 -4.684259 -0.878994 -27.689287 2.052945 9.742084 23.010048 2.830790 -0.144412 63.941685 22.832064 14.316133 46.173248 5.000000 8.976656 -3.034689 -15.073613 27.050253 -100.000435 17.636007 -11.235298 132.346405 6.358163 -6.277177 -23.421999 8.010251 5.432452 -25.994356 -3.622559 -22.967793 144.982391 -0.551778 0.321319 -79.927490 -10.592155 -9.387809 
